<svg width="54" height="57" viewBox="0 0 54 57" fill="none" xmlns="http://www.w3.org/2000/svg">
<path d="M46.7014 45.4624C51.228 40.634 54 34.1407 54 27C54 12.0883 41.9117 0 27 0C12.0883 0 0 12.0883 0 27C0 34.1407 2.772 40.634 7.29862 45.4624C7.10233 44.3378 7 43.1808 7 42C7 30.9543 15.9543 22 27 22C38.0457 22 47 30.9543 47 42C47 43.1808 46.8977 44.3378 46.7014 45.4624Z" fill="white"/>
<path fill-rule="evenodd" clip-rule="evenodd" d="M42.68 42.604L11 42.604V41.4753L42.68 41.4753V42.604Z" fill="white"/>
<path fill-rule="evenodd" clip-rule="evenodd" d="M42.68 42.604L11 42.604V41.4753L42.68 41.4753V42.604Z" fill="white"/>
<path fill-rule="evenodd" clip-rule="evenodd" d="M41.935 37.4158L12.1511 47.7624L11.745 46.702L41.529 36.3554L41.935 37.4158Z" fill="white"/>
<path fill-rule="evenodd" clip-rule="evenodd" d="M39.3477 32.8031L15.0939 52.1795L14.3324 51.3147L38.5861 31.9383L39.3477 32.8031Z" fill="white"/>
<path fill-rule="evenodd" clip-rule="evenodd" d="M35.293 29.2664L19.453 55.4152L18.4265 54.8511L34.2665 28.7024L35.293 29.2664Z" fill="white"/>
<path fill-rule="evenodd" clip-rule="evenodd" d="M30.1885 27.277L24.6583 57L23.4915 56.803L29.0217 27.08L30.1885 27.277Z" fill="white"/>
<path fill-rule="evenodd" clip-rule="evenodd" d="M24.6583 27.08L30.1885 56.803L29.0217 57L23.4915 27.277L24.6583 27.08Z" fill="white"/>
<path fill-rule="evenodd" clip-rule="evenodd" d="M19.453 28.7024L35.293 54.8511L34.2665 55.4152L18.4265 29.2664L19.453 28.7024Z" fill="white"/>
<path fill-rule="evenodd" clip-rule="evenodd" d="M15.0939 31.9383L39.3477 51.3147L38.5861 52.1795L14.3324 32.8031L15.0939 31.9383Z" fill="white"/>
<path fill-rule="evenodd" clip-rule="evenodd" d="M12.1511 36.3554L41.935 46.702L41.529 47.7624L11.745 37.4158L12.1511 36.3554Z" fill="white"/>
</svg>
