<svg width="27" height="26" viewBox="0 0 27 26" fill="none" xmlns="http://www.w3.org/2000/svg">
<path fill-rule="evenodd" clip-rule="evenodd" d="M26.9301 13.4598L0.652343 13.4598L0.652343 12.5004L26.9301 12.5004L26.9301 13.4598Z"/>
<path fill-rule="evenodd" clip-rule="evenodd" d="M26.9301 13.4598L0.652343 13.4598L0.652343 12.5004L26.9301 12.5004L26.9301 13.4598Z"/>
<path fill-rule="evenodd" clip-rule="evenodd" d="M26.3122 9.05011L1.60711 17.8441L1.27031 16.9428L25.9753 8.14884L26.3122 9.05011Z"/>
<path fill-rule="evenodd" clip-rule="evenodd" d="M24.166 5.12963L4.04813 21.5984L3.41645 20.8633L23.5343 4.39461L24.166 5.12963Z"/>
<path fill-rule="evenodd" clip-rule="evenodd" d="M20.8028 2.12367L7.66387 24.3485L6.81246 23.869L19.9513 1.64424L20.8028 2.12367Z"/>
<path fill-rule="evenodd" clip-rule="evenodd" d="M16.5687 0.432735L11.9816 25.6954L11.0137 25.528L15.6009 0.265334L16.5687 0.432735Z"/>
<path fill-rule="evenodd" clip-rule="evenodd" d="M11.9816 0.265335L16.5687 25.528L15.6009 25.6954L11.0137 0.432735L11.9816 0.265335Z"/>
<path fill-rule="evenodd" clip-rule="evenodd" d="M7.66387 1.64424L20.8028 23.869L19.9513 24.3485L6.81246 2.12367L7.66387 1.64424Z"/>
<path fill-rule="evenodd" clip-rule="evenodd" d="M4.04813 4.39461L24.166 20.8633L23.5343 21.5984L3.41645 5.12963L4.04813 4.39461Z"/>
<path fill-rule="evenodd" clip-rule="evenodd" d="M1.60711 8.14884L26.3122 16.9428L25.9753 17.8441L1.27031 9.05011L1.60711 8.14884Z"/>
</svg>
